<svg xmlns="http://www.w3.org/2000/svg" viewBox="0 0 1200 800" role="img" aria-labelledby="title">
  <title id="title">OEM pressure gauge assembly and export packaging</title>
  <defs>
    <linearGradient id="bg" x1="0" y1="0" x2="1" y2="1">
      <stop offset="0" stop-color="#f8fafc"/>
      <stop offset="0.52" stop-color="#f1efe8"/>
      <stop offset="1" stop-color="#dbeafe"/>
    </linearGradient>
    <linearGradient id="blue" x1="0" y1="0" x2="1" y2="1">
      <stop offset="0" stop-color="#185fa5"/>
      <stop offset="1" stop-color="#0c447c"/>
    </linearGradient>
    <linearGradient id="steel" x1="0" y1="0" x2="1" y2="1">
      <stop offset="0" stop-color="#f8fafc"/>
      <stop offset="0.45" stop-color="#b8c4d4"/>
      <stop offset="1" stop-color="#64748b"/>
    </linearGradient>
    <filter id="shadow" x="-20%" y="-20%" width="140%" height="140%">
      <feDropShadow dx="0" dy="18" stdDeviation="20" flood-color="#0c2745" flood-opacity="0.18"/>
    </filter>
  </defs>
  <rect width="1200" height="800" fill="url(#bg)"/>
  <g opacity="0.3">
    <rect x="86" y="112" width="1028" height="92" rx="28" fill="#ffffff"/>
    <path d="M142 158h902" stroke="#0c447c" stroke-width="10" stroke-linecap="round" opacity="0.26"/>
  </g>
  <g filter="url(#shadow)">
    <rect x="94" y="530" width="1012" height="84" rx="32" fill="#29384e"/>
    <rect x="138" y="492" width="210" height="120" rx="24" fill="#dca662"/>
    <path d="M138 528h210M244 492v120" stroke="#b87834" stroke-width="8" opacity="0.8"/>
    <rect x="852" y="478" width="238" height="134" rx="26" fill="#dca662"/>
    <path d="M852 520h238M970 478v134" stroke="#b87834" stroke-width="8" opacity="0.8"/>
    <g transform="translate(396 292)">
      <circle cx="120" cy="120" r="108" fill="url(#steel)"/>
      <circle cx="120" cy="120" r="78" fill="#f8fafc"/>
      <circle cx="120" cy="120" r="8" fill="#0c447c"/>
      <path d="M120 120l48-42" stroke="#ef9f27" stroke-width="10" stroke-linecap="round"/>
      <path d="M120 212v68" stroke="#64748b" stroke-width="32" stroke-linecap="round"/>
      <path d="M84 284h72" stroke="#64748b" stroke-width="24" stroke-linecap="round"/>
      <path d="M74 78c28-26 64-26 92 0" fill="none" stroke="#378add" stroke-width="8" stroke-linecap="round" opacity="0.5"/>
    </g>
    <g transform="translate(638 324) scale(.78)">
      <circle cx="120" cy="120" r="108" fill="url(#blue)"/>
      <circle cx="120" cy="120" r="78" fill="#f8fafc"/>
      <circle cx="120" cy="120" r="8" fill="#0c447c"/>
      <path d="M120 120l-38-50" stroke="#ef9f27" stroke-width="11" stroke-linecap="round"/>
      <path d="M120 212v68" stroke="#64748b" stroke-width="32" stroke-linecap="round"/>
      <path d="M84 284h72" stroke="#64748b" stroke-width="24" stroke-linecap="round"/>
    </g>
  </g>
  <path d="M185 670h830" stroke="#378add" stroke-width="10" stroke-linecap="round" opacity="0.22"/>
  <circle cx="1040" cy="176" r="64" fill="#1d9e75" opacity="0.18"/>
</svg>
