<svg xmlns="http://www.w3.org/2000/svg" viewBox="0 0 1200 800" role="img" aria-labelledby="title">
  <title id="title">Water treatment pipeline with electromagnetic flow meter</title>
  <defs>
    <linearGradient id="bg" x1="0" y1="0" x2="1" y2="1">
      <stop offset="0" stop-color="#e0f2fe"/>
      <stop offset="0.55" stop-color="#f8fafc"/>
      <stop offset="1" stop-color="#f1efe8"/>
    </linearGradient>
    <linearGradient id="water" x1="0" y1="0" x2="1" y2="1">
      <stop offset="0" stop-color="#7dd3fc"/>
      <stop offset="1" stop-color="#378add"/>
    </linearGradient>
    <linearGradient id="meter" x1="0" y1="0" x2="1" y2="1">
      <stop offset="0" stop-color="#185fa5"/>
      <stop offset="1" stop-color="#0c447c"/>
    </linearGradient>
    <filter id="shadow" x="-20%" y="-20%" width="140%" height="140%">
      <feDropShadow dx="0" dy="18" stdDeviation="20" flood-color="#0c2745" flood-opacity="0.16"/>
    </filter>
  </defs>
  <rect width="1200" height="800" fill="url(#bg)"/>
  <g opacity="0.48">
    <rect x="82" y="105" width="300" height="160" rx="26" fill="#ffffff"/>
    <rect x="418" y="105" width="300" height="160" rx="26" fill="#ffffff"/>
    <rect x="754" y="105" width="300" height="160" rx="26" fill="#ffffff"/>
    <path d="M108 184c56-24 113-24 170 0s113 24 170 0 113-24 170 0 113 24 170 0 113-24 170 0" fill="none" stroke="url(#water)" stroke-width="18" stroke-linecap="round"/>
  </g>
  <g filter="url(#shadow)">
    <path d="M110 480h290" stroke="#8ea0b8" stroke-width="74" stroke-linecap="round"/>
    <path d="M800 480h290" stroke="#8ea0b8" stroke-width="74" stroke-linecap="round"/>
    <path d="M110 480h290" stroke="#dbe4ee" stroke-width="42" stroke-linecap="round"/>
    <path d="M800 480h290" stroke="#dbe4ee" stroke-width="42" stroke-linecap="round"/>
    <rect x="375" y="365" width="450" height="230" rx="48" fill="url(#meter)"/>
    <rect x="430" y="415" width="340" height="130" rx="30" fill="#f8fafc" opacity="0.94"/>
    <circle cx="505" cy="480" r="46" fill="#0c447c"/>
    <circle cx="505" cy="480" r="25" fill="#378add"/>
    <circle cx="694" cy="480" r="46" fill="#0c447c"/>
    <circle cx="694" cy="480" r="25" fill="#378add"/>
    <rect x="545" y="308" width="110" height="80" rx="20" fill="#24364f"/>
    <rect x="568" y="323" width="64" height="32" rx="7" fill="#b9f6ff"/>
    <path d="M258 480h204M738 480h204" stroke="#64748b" stroke-width="10" stroke-linecap="round" opacity="0.65"/>
  </g>
  <path d="M126 648h948" stroke="#0c447c" stroke-width="18" stroke-linecap="round" opacity="0.15"/>
  <path d="M214 690h772" stroke="#378add" stroke-width="9" stroke-linecap="round" opacity="0.28"/>
  <circle cx="980" cy="250" r="56" fill="#1d9e75" opacity="0.16"/>
</svg>
