<svg xmlns="http://www.w3.org/2000/svg" viewBox="0 0 1200 800" role="img" aria-labelledby="title">
  <title id="title">Sensor assembly line</title>
  <defs>
    <linearGradient id="bg" x1="0" y1="0" x2="1" y2="1">
      <stop offset="0" stop-color="#f8fafc"/>
      <stop offset="1" stop-color="#e5edf6"/>
    </linearGradient>
    <linearGradient id="blue" x1="0" y1="0" x2="1" y2="1">
      <stop offset="0" stop-color="#185fa5"/>
      <stop offset="1" stop-color="#0c447c"/>
    </linearGradient>
    <filter id="shadow" x="-20%" y="-20%" width="140%" height="140%">
      <feDropShadow dx="0" dy="18" stdDeviation="18" flood-color="#0c2745" flood-opacity="0.16"/>
    </filter>
  </defs>
  <rect width="1200" height="800" rx="44" fill="url(#bg)"/>
  <g opacity="0.25">
    <path d="M120 150h960M120 248h960M120 346h960" stroke="#0c447c" stroke-width="8" stroke-linecap="round"/>
    <path d="M210 98v294M420 98v294M630 98v294M840 98v294" stroke="#0c447c" stroke-width="5" stroke-linecap="round"/>
  </g>
  <g filter="url(#shadow)">
    <rect x="112" y="518" width="976" height="100" rx="35" fill="#24364f"/>
    <rect x="166" y="486" width="868" height="78" rx="32" fill="#8ea0b8"/>
    <circle cx="260" cy="605" r="30" fill="#0c447c"/>
    <circle cx="492" cy="605" r="30" fill="#0c447c"/>
    <circle cx="724" cy="605" r="30" fill="#0c447c"/>
    <circle cx="956" cy="605" r="30" fill="#0c447c"/>
    <g transform="translate(242 318)">
      <rect x="0" y="58" width="150" height="96" rx="22" fill="url(#blue)"/>
      <rect x="54" y="0" width="42" height="72" rx="12" fill="#64748b"/>
      <path d="M75 154v82" stroke="#64748b" stroke-width="26" stroke-linecap="round"/>
      <path d="M36 238h78" stroke="#64748b" stroke-width="22" stroke-linecap="round"/>
    </g>
    <g transform="translate(528 294)">
      <rect x="0" y="82" width="180" height="98" rx="24" fill="url(#blue)"/>
      <rect x="58" y="0" width="64" height="95" rx="15" fill="#64748b"/>
      <path d="M90 180v88" stroke="#64748b" stroke-width="28" stroke-linecap="round"/>
      <path d="M48 270h84" stroke="#64748b" stroke-width="22" stroke-linecap="round"/>
    </g>
    <g transform="translate(824 334)">
      <rect x="0" y="48" width="140" height="88" rx="22" fill="url(#blue)"/>
      <circle cx="70" cy="92" r="28" fill="#f8fafc"/>
      <path d="M70 136v78" stroke="#64748b" stroke-width="24" stroke-linecap="round"/>
    </g>
  </g>
  <path d="M172 690h856" stroke="#378add" stroke-width="12" stroke-linecap="round" opacity="0.28"/>
</svg>
