<svg xmlns="http://www.w3.org/2000/svg" viewBox="0 0 1200 800" role="img" aria-labelledby="title">
  <title id="title">Quality control and export packaging</title>
  <defs>
    <linearGradient id="bg" x1="0" y1="0" x2="1" y2="1">
      <stop offset="0" stop-color="#fff7ed"/>
      <stop offset="0.55" stop-color="#f8fafc"/>
      <stop offset="1" stop-color="#e0f2fe"/>
    </linearGradient>
    <linearGradient id="blue" x1="0" y1="0" x2="1" y2="1">
      <stop offset="0" stop-color="#185fa5"/>
      <stop offset="1" stop-color="#0c447c"/>
    </linearGradient>
    <filter id="shadow" x="-20%" y="-20%" width="140%" height="140%">
      <feDropShadow dx="0" dy="18" stdDeviation="18" flood-color="#0c2745" flood-opacity="0.16"/>
    </filter>
  </defs>
  <rect width="1200" height="800" rx="44" fill="url(#bg)"/>
  <g filter="url(#shadow)">
    <rect x="112" y="538" width="976" height="92" rx="34" fill="#24364f"/>
    <rect x="170" y="390" width="235" height="150" rx="26" fill="#dca662"/>
    <path d="M170 438h235M288 390v150" stroke="#b87834" stroke-width="9" opacity="0.75"/>
    <rect x="768" y="350" width="252" height="190" rx="28" fill="#dca662"/>
    <path d="M768 410h252M894 350v190" stroke="#b87834" stroke-width="9" opacity="0.75"/>
    <rect x="470" y="322" width="190" height="126" rx="26" fill="url(#blue)"/>
    <circle cx="565" cy="385" r="38" fill="#f8fafc"/>
    <path d="M565 448v76" stroke="#64748b" stroke-width="28" stroke-linecap="round"/>
    <path d="M520 526h90" stroke="#64748b" stroke-width="22" stroke-linecap="round"/>
    <rect x="420" y="196" width="300" height="100" rx="24" fill="#ffffff"/>
    <path d="M462 247l46 46 92-110" fill="none" stroke="#1d9e75" stroke-width="22" stroke-linecap="round" stroke-linejoin="round"/>
    <path d="M640 238h44" stroke="#0c447c" stroke-width="14" stroke-linecap="round" opacity="0.3"/>
  </g>
  <path d="M188 692h824" stroke="#378add" stroke-width="12" stroke-linecap="round" opacity="0.28"/>
</svg>
