<svg xmlns="http://www.w3.org/2000/svg" viewBox="0 0 1200 800" role="img" aria-labelledby="title">
  <title id="title">Calibration laboratory bench</title>
  <defs>
    <linearGradient id="bg" x1="0" y1="0" x2="1" y2="1">
      <stop offset="0" stop-color="#eef6ff"/>
      <stop offset="1" stop-color="#f1efe8"/>
    </linearGradient>
    <linearGradient id="blue" x1="0" y1="0" x2="1" y2="1">
      <stop offset="0" stop-color="#185fa5"/>
      <stop offset="1" stop-color="#0c447c"/>
    </linearGradient>
    <filter id="shadow" x="-20%" y="-20%" width="140%" height="140%">
      <feDropShadow dx="0" dy="18" stdDeviation="18" flood-color="#0c2745" flood-opacity="0.16"/>
    </filter>
  </defs>
  <rect width="1200" height="800" rx="44" fill="url(#bg)"/>
  <g filter="url(#shadow)">
    <rect x="128" y="530" width="944" height="88" rx="34" fill="#24364f"/>
    <rect x="168" y="238" width="290" height="230" rx="28" fill="#ffffff"/>
    <rect x="204" y="278" width="218" height="112" rx="18" fill="#dff7ff"/>
    <path d="M226 334c34-36 58 42 94 2s58-36 84 0" fill="none" stroke="#378add" stroke-width="10" stroke-linecap="round"/>
    <circle cx="232" cy="426" r="17" fill="#1d9e75"/>
    <circle cx="288" cy="426" r="17" fill="#ef9f27"/>
    <circle cx="344" cy="426" r="17" fill="#0c447c"/>
    <rect x="555" y="298" width="190" height="154" rx="32" fill="url(#blue)"/>
    <rect x="612" y="224" width="76" height="90" rx="18" fill="#64748b"/>
    <path d="M650 452v90" stroke="#64748b" stroke-width="36" stroke-linecap="round"/>
    <path d="M590 545h120" stroke="#64748b" stroke-width="28" stroke-linecap="round"/>
    <path d="M458 412h98M744 412h192" stroke="#64748b" stroke-width="16" stroke-linecap="round"/>
    <rect x="860" y="302" width="178" height="120" rx="24" fill="#ffffff"/>
    <path d="M890 362h118M890 394h82" stroke="#0c447c" stroke-width="13" stroke-linecap="round" opacity="0.45"/>
    <circle cx="998" cy="338" r="18" fill="#1d9e75"/>
  </g>
  <path d="M180 680h840" stroke="#378add" stroke-width="12" stroke-linecap="round" opacity="0.3"/>
</svg>
